<?xml version="1.0" encoding="UTF-8"?>
<svg width="32px" height="32px" viewBox="0 0 32 32" version="1.1" xmlns="http://www.w3.org/2000/svg" xmlns:xlink="http://www.w3.org/1999/xlink">
    <!-- Generator: Sketch 59.1 (86144) - https://sketch.com -->
    <title>骡马logo</title>
    <desc>Created with Sketch.</desc>
    <defs>
        <polygon id="path-1" points="0 0 32 0 32 32 0 32"></polygon>
    </defs>
    <g id="组件" stroke="none" stroke-width="1" fill="none" fill-rule="evenodd">
        <g id="骡马logo">
            <g>
                <mask id="mask-2" fill="white">
                    <use xlink:href="#path-1"></use>
                </mask>
                <g id="Clip-2"></g>
                <path d="M23.6747636,31.5067948 C20.4723532,29.6329247 16.6813091,26.1658701 15.9985039,20.0802182 C15.9985039,20.0802182 14.1926234,18.9329558 13.6714805,16.4844987 C13.8600727,17.2265662 14.8337039,19.9003532 19.1377455,20.0614338 C20.7618494,20.1219429 21.5590234,22.1499948 21.5590234,22.8396156 C21.5590234,23.5292364 24.3710338,24.1433039 25.4050909,23.4536831 C26.2267844,22.9070234 27.4668883,20.2904208 26.4999896,19.1623584 C25.6302545,18.1464208 24.6699221,16.9047377 24.1352312,15.807013 C23.4025558,15.9835532 22.4127169,16.1504519 21.499761,16.0596883 C19.7760831,15.8872208 19.0867117,14.2194805 19.1443948,13.6463065 C19.1443948,13.6463065 19.7395948,15.7976208 23.7231377,14.4059117 C23.720561,14.3020987 23.7247169,14.200613 23.7420052,14.1049455 C23.9724052,12.8417351 22.9367688,10.548374 20.3712831,9.04961039 C19.6481662,8.62729351 18.6865039,8.44152727 17.6577662,8.3761974 C16.8321662,6.98772987 16.6409974,4.39531429 16.6409974,4.39531429 C15.6470857,5.44973506 15.2161247,6.84909091 15.0289455,7.94241039 C14.9778286,8.2412987 12.9913351,9.63799481 11.9410701,10.5039065 C11.0818909,11.2115636 10.1875532,12.1281766 9.26254545,13.3016208 C6.40199481,16.9276779 4.30794805,22.8367065 3.10001039,26.9253091 C2.88182857,26.6291636 2.67578182,26.3234597 2.47912727,26.0123532 C2.88457143,24.5834078 3.69936623,21.9454442 4.57865974,20.3689662 C4.57865974,20.3689662 2.05090909,21.0888416 1.15673766,23.4275013 C0.810638961,22.5620883 0.533277922,21.6613506 0.340696104,20.7279481 C1.13787013,20.7753247 2.08465455,20.717226 2.81184416,20.3252468 C4.2702961,19.538961 4.96656623,18.7307325 5.52669091,17.4809039 C6.08698182,16.2319065 6.75357922,14.7035532 7.82146494,14.248987 C7.82146494,14.248987 6.34954805,14.8052883 4.57865974,16.3606545 C3.40164156,17.3933818 1.64554805,18.1612156 0.0133818182,17.3573922 C0.0201142857,16.4750234 0.099574026,15.6119377 0.243615584,14.770213 C0.911625974,14.9141714 1.7344,15.0495688 2.55725714,15.0772468 C3.0729974,15.0952831 5.26271169,15.4504416 7.60610909,13.0423792 C8.98776104,11.6216623 9.6772987,10.9737662 11.1720727,10.1698597 C11.1720727,10.1698597 9.26113247,10.6572571 6.83170909,12.0492987 C5.42977662,12.8526234 3.59281039,13.3670338 1.14593247,11.5648935 C1.42886234,10.8554078 1.76,10.171439 2.1371013,9.51689351 C2.41720519,9.79691429 2.75125195,10.029974 3.11347532,10.1988675 C5.05267532,11.1032623 8.31842078,10.067626 10.1108364,9.15591688 C12.7234494,7.82804156 14.3179636,7.78548571 14.3179636,7.78548571 C12.650639,6.86504935 7.99650909,8.07165714 6.21622857,7.78548571 C5.47416104,7.66521558 4.90456104,7.05646753 4.48980779,6.3897039 C7.39731948,3.3718961 11.4776104,1.49320519 15.9985039,1.49320519 C24.8290078,1.49320519 31.9866182,8.6508987 31.9866182,17.4809039 C31.9866182,23.5292364 28.6279481,28.7904519 23.6747636,31.5067948" id="Fill-1" fill="#249DED" mask="url(#mask-2)"></path>
            </g>
        </g>
    </g>
</svg>